<?xml version="1.0" encoding="UTF-8"?><svg id="Layer_2" xmlns="http://www.w3.org/2000/svg" width="13" height="97.14" viewBox="0 0 13 97.14"><defs><style>.cls-1{fill:#fff;}</style></defs><g id="Layer_1-2"><path class="cls-1" d="M6.5,96.96c-.28,0-.5-.29-.5-.65V.65c0-.36,.22-.65,.5-.65s.5,.29,.5,.65V96.31c0,.36-.22,.65-.5,.65Z"/><path class="cls-1" d="M6.4,96.96c-.16,0-.32-.1-.42-.29L.08,85.03c-.15-.3-.09-.7,.14-.89,.23-.2,.54-.11,.69,.19l5.9,11.64c.15,.3,.09,.7-.14,.89-.08,.07-.18,.11-.27,.11Z"/><path class="cls-1" d="M6.3,97.14c-.1,0-.19-.04-.28-.11-.23-.2-.29-.6-.13-.9l6.2-11.81c.16-.3,.47-.37,.69-.17,.23,.2,.29,.6,.13,.9l-6.2,11.81c-.1,.18-.25,.28-.41,.28Z"/></g></svg>