<?xml version="1.0" encoding="UTF-8"?><svg id="Layer_2" xmlns="http://www.w3.org/2000/svg" width="53.77" height="60.92" viewBox="0 0 53.77 60.92"><defs><style>.cls-1{fill:#fff;}</style></defs><g id="Layer_1-2"><g><g><path class="cls-1" d="M0,60.92v-1.29c1.92-.05,3.53-.54,4.83-1.49,1.3-.95,2.28-2.52,2.94-4.71,.66-2.19,.99-5.12,.99-8.78V7.35c0-1.67-.13-2.9-.38-3.7-.26-.79-.76-1.33-1.5-1.63-.75-.29-1.85-.46-3.3-.51V.16c.9,.05,2.07,.09,3.52,.14,1.45,.05,2.96,.07,4.54,.07s3.1-.02,4.57-.07c1.47-.04,2.7-.09,3.68-.14V1.51c-1.45,.05-2.55,.22-3.3,.51-.75,.29-1.25,.84-1.5,1.63-.26,.79-.38,2.02-.38,3.7v24.82c0,1.85-.02,3.87-.06,6.04-.04,2.17-.14,4.27-.29,6.31-.15,2.03-.39,3.82-.74,5.36-.73,3.16-2.25,5.8-4.57,7.9-2.33,2.1-5.34,3.15-9.05,3.15Z"/><path class="cls-1" d="M9.09,.14c.9,.04,2.07,.09,3.52,.13,1.45,.04,2.88,.06,4.29,.06,2,0,3.92-.02,5.76-.06,1.83-.04,3.14-.06,3.9-.06,4.48,0,7.85,.94,10.11,2.81,2.26,1.88,3.39,4.28,3.39,7.23,0,1.49-.31,2.95-.93,4.38-.62,1.43-1.64,2.73-3.07,3.9-1.43,1.17-3.34,2.12-5.73,2.85v.13c3.37,.43,6,1.23,7.9,2.4,1.9,1.17,3.23,2.55,4,4.12,.77,1.58,1.15,3.24,1.15,4.99,0,2.43-.61,4.57-1.82,6.43s-2.98,3.32-5.28,4.38c-2.3,1.07-5.05,1.6-8.25,1.6-.94,0-2.35-.03-4.22-.1-1.88-.06-4.14-.1-6.78-.1-1.49,0-2.97,.01-4.41,.03-1.45,.02-2.62,.07-3.52,.16v-1.28c1.45-.08,2.55-.26,3.3-.51,.75-.26,1.25-.77,1.5-1.53s.38-1.92,.38-3.45V6.92c0-1.58-.13-2.74-.38-3.49-.26-.75-.76-1.26-1.5-1.53-.75-.28-1.85-.44-3.3-.48V.14Zm15.87,1.28c-1.96,0-3.24,.36-3.84,1.09-.6,.73-.9,2.2-.9,4.41v31.72c0,1.49,.13,2.62,.38,3.39,.26,.77,.72,1.28,1.41,1.53,.68,.26,1.68,.38,3.01,.38,4.18,0,7.22-.97,9.12-2.91,1.9-1.94,2.85-4.7,2.85-8.28,0-3.28-.89-5.82-2.66-7.61-1.77-1.79-4.68-2.69-8.73-2.69h-6.59v-1.09h5.5c2.52,0,4.46-.48,5.82-1.44,1.36-.96,2.3-2.24,2.82-3.84,.51-1.6,.77-3.31,.77-5.15,0-3.15-.69-5.53-2.08-7.13-1.39-1.6-3.68-2.4-6.88-2.4Z"/><g><path class="cls-1" d="M15.95,56.89v-.2c.23-.01,.4-.04,.52-.08,.12-.04,.2-.12,.24-.24,.04-.12,.06-.3,.06-.54v-4.99c0-.25-.02-.43-.06-.55s-.12-.2-.24-.24c-.12-.04-.29-.07-.52-.08v-.2c.14,0,.33,.01,.55,.02,.23,0,.47,.01,.73,.01,.23,0,.47,0,.7-.01,.23,0,.42-.01,.58-.02v.2c-.23,0-.4,.03-.52,.08-.12,.04-.2,.12-.24,.24s-.06,.3-.06,.55v4.99c0,.24,.02,.42,.06,.54,.04,.12,.12,.2,.24,.24,.12,.04,.29,.07,.52,.08v.2c-.15-.01-.35-.02-.58-.03s-.46,0-.7,0c-.26,0-.51,0-.73,0-.23,0-.41,.01-.55,.03Zm1.4-3.48v-.2h3.98v.2h-3.98Zm2.81,3.48v-.2c.23-.01,.4-.04,.52-.08,.12-.04,.2-.12,.24-.24,.04-.12,.06-.3,.06-.54v-4.99c0-.25-.02-.43-.06-.55s-.12-.2-.24-.24c-.12-.04-.29-.07-.52-.08v-.2c.15,0,.35,.01,.58,.02,.23,0,.47,.01,.69,.01,.26,0,.51,0,.73-.01,.23,0,.41-.01,.55-.02v.2c-.23,0-.4,.03-.52,.08-.12,.04-.2,.12-.24,.24s-.06,.3-.06,.55v4.99c0,.24,.02,.42,.06,.54,.04,.12,.12,.2,.24,.24,.12,.04,.29,.07,.52,.08v.2c-.14-.01-.33-.02-.55-.03-.23,0-.47,0-.73,0-.23,0-.46,0-.69,0s-.43,.01-.58,.03Z"/><path class="cls-1" d="M24.38,56.04l.16,.21-.94,1.37-.21-.14,.99-1.44Zm1.34-4.48c.43,0,.82,.09,1.16,.28,.34,.19,.62,.48,.82,.89,.2,.4,.31,.93,.31,1.57s-.1,1.17-.31,1.56c-.2,.4-.48,.69-.82,.88-.34,.19-.73,.28-1.16,.28s-.81-.09-1.15-.28c-.35-.19-.62-.48-.83-.88s-.31-.92-.31-1.56,.1-1.17,.31-1.57,.48-.7,.83-.89c.35-.19,.73-.28,1.15-.28Zm0,.2c-.38,0-.7,.2-.94,.59-.24,.4-.37,1.04-.37,1.94s.12,1.54,.37,1.94c.24,.39,.56,.59,.94,.59s.7-.2,.94-.59c.24-.39,.37-1.04,.37-1.94s-.12-1.55-.37-1.94c-.24-.4-.56-.59-.94-.59Zm1.19,.43l.15,.2-2.42,3.85-.16-.21,2.43-3.84Zm.94-1.22l.19,.13-.88,1.29-.15-.2,.84-1.22Z"/><path class="cls-1" d="M28.22,58.78v-.15c.42-.02,.73-.2,.94-.54,.21-.34,.31-.8,.31-1.39v-3.89c0-.3-.05-.52-.16-.67-.11-.14-.31-.22-.6-.22v-.21c.21,.02,.42,.03,.62,.03s.38-.01,.56-.04c.18-.02,.34-.06,.49-.11v4.14c0,.34-.02,.65-.07,.96-.05,.3-.12,.58-.23,.83-.11,.25-.25,.47-.42,.65-.17,.18-.37,.33-.62,.44-.24,.11-.51,.17-.81,.17Zm1.61-9.59c.17,0,.33,.06,.45,.19,.13,.13,.19,.28,.19,.45s-.06,.33-.19,.45c-.13,.13-.28,.19-.45,.19s-.33-.06-.45-.19c-.13-.13-.19-.28-.19-.45s.06-.33,.19-.45c.13-.13,.28-.19,.45-.19Z"/><path class="cls-1" d="M33.26,51.57c.27,0,.5,.04,.68,.13,.19,.09,.33,.17,.41,.24,.22,.18,.36,.06,.4-.36h.23c-.01,.19-.02,.41-.03,.67,0,.26,0,.61,0,1.04h-.23c-.04-.25-.11-.49-.21-.72s-.24-.43-.43-.58c-.19-.15-.43-.23-.73-.23-.23,0-.43,.07-.59,.2-.16,.13-.24,.32-.24,.58,0,.2,.06,.37,.18,.52,.12,.14,.28,.28,.47,.4,.19,.12,.41,.26,.63,.41,.25,.16,.49,.33,.69,.49,.21,.17,.37,.35,.5,.55,.12,.2,.19,.44,.19,.71,0,.31-.08,.57-.24,.77-.16,.21-.37,.37-.63,.47s-.54,.16-.85,.16c-.15,0-.29-.01-.42-.04-.13-.02-.26-.06-.38-.11-.07-.03-.14-.07-.21-.12-.07-.05-.14-.1-.21-.15-.07-.05-.13-.05-.18,0-.05,.06-.09,.17-.12,.34h-.23c.01-.21,.02-.48,.03-.78,0-.31,0-.72,0-1.23h.23c.05,.38,.11,.7,.2,.99s.22,.5,.41,.66c.19,.16,.45,.24,.78,.24,.13,0,.27-.03,.41-.09s.25-.16,.35-.3c.09-.14,.14-.33,.14-.56,0-.3-.11-.54-.32-.72-.21-.19-.49-.39-.82-.59-.24-.15-.47-.31-.68-.46-.21-.15-.38-.33-.51-.52-.13-.19-.2-.43-.2-.7,0-.3,.07-.55,.21-.74s.32-.33,.55-.42c.23-.09,.47-.14,.73-.14Z"/><path class="cls-1" d="M37.54,49v6.95c0,.28,.05,.47,.15,.57s.27,.15,.51,.15v.21c-.11,0-.27-.02-.48-.03-.21-.01-.42-.02-.64-.02-.23,0-.46,0-.69,.02-.23,0-.41,.02-.52,.03v-.21c.28,0,.47-.05,.59-.15,.12-.1,.18-.29,.18-.57v-5.75c0-.3-.05-.52-.16-.67-.11-.14-.31-.22-.6-.22v-.21c.21,.02,.42,.03,.62,.03s.38-.01,.56-.04c.18-.02,.34-.06,.49-.11Zm3.2,2.71v.2c-.17,.01-.33,.06-.47,.14s-.29,.19-.43,.34l-1.42,1.49,.14-.28,1.87,2.57c.11,.15,.22,.28,.33,.36s.23,.14,.38,.16v.21c-.07,0-.19-.02-.35-.03-.16-.01-.31-.02-.47-.02-.21,0-.42,0-.63,.02-.21,0-.38,.02-.48,.03v-.21c.13,0,.23-.03,.28-.1,.05-.07,.04-.15-.03-.24l-1.16-1.69c-.13-.18-.24-.3-.35-.35-.1-.05-.25-.08-.45-.09v-.2c.21-.03,.39-.07,.52-.14,.13-.06,.26-.16,.38-.29l.74-.77c.21-.22,.32-.4,.32-.53s-.07-.22-.21-.28c-.14-.06-.32-.09-.54-.09v-.2c.17,0,.37,.02,.59,.03,.22,.01,.4,.02,.55,.02,.11,0,.22,0,.33,0s.21,0,.3-.02c.09,0,.17-.01,.24-.02Z"/><path class="cls-1" d="M43.67,51.57c.43,0,.82,.09,1.16,.28,.34,.19,.62,.48,.82,.89,.2,.4,.31,.93,.31,1.57s-.1,1.17-.31,1.56c-.2,.4-.48,.69-.82,.88-.34,.19-.73,.28-1.16,.28s-.81-.09-1.15-.28c-.35-.19-.62-.48-.83-.88s-.31-.92-.31-1.56,.1-1.17,.31-1.57,.48-.7,.83-.89c.35-.19,.73-.28,1.15-.28Zm0,.2c-.38,0-.7,.2-.94,.59-.24,.4-.37,1.04-.37,1.94s.12,1.54,.37,1.94c.24,.39,.56,.59,.94,.59s.7-.2,.94-.59c.24-.39,.37-1.04,.37-1.94s-.12-1.55-.37-1.94c-.24-.4-.56-.59-.94-.59Z"/><path class="cls-1" d="M48.22,49v6.95c0,.28,.06,.47,.18,.57,.12,.1,.31,.15,.59,.15v.21c-.11,0-.29-.02-.52-.03-.23-.01-.46-.02-.7-.02s-.46,0-.69,.02c-.23,0-.41,.02-.52,.03v-.21c.27,0,.47-.05,.59-.15,.12-.1,.18-.29,.18-.57v-5.75c0-.3-.05-.52-.16-.67-.11-.14-.31-.22-.6-.22v-.21c.21,.02,.42,.03,.62,.03s.38-.01,.56-.04c.18-.02,.34-.06,.49-.11Z"/><path class="cls-1" d="M51.85,51.57c.59,0,1.05,.18,1.38,.54,.33,.36,.5,.92,.5,1.68h-3.55v-.19s2.59,0,2.59,0c.01-.33-.01-.63-.08-.91-.07-.28-.17-.5-.32-.67s-.33-.25-.56-.25c-.31,0-.58,.15-.82,.46-.24,.31-.38,.8-.43,1.47l.03,.04c-.01,.1-.02,.21-.03,.33,0,.12,0,.24,0,.36,0,.46,.07,.85,.22,1.18,.15,.33,.34,.58,.58,.75,.24,.17,.48,.26,.74,.26,.2,0,.39-.03,.57-.1,.18-.06,.35-.17,.5-.32,.15-.15,.29-.35,.4-.59l.2,.08c-.07,.22-.19,.44-.36,.64s-.38,.38-.63,.51c-.26,.13-.55,.2-.89,.2-.48,0-.9-.11-1.24-.33-.35-.22-.61-.53-.8-.92-.18-.39-.28-.84-.28-1.35,0-.59,.09-1.1,.28-1.52,.19-.43,.45-.75,.8-.99s.74-.35,1.2-.35Z"/></g></g><path class="cls-1" d="M28.09,.28C24.66,.11,21.85,.05,19.9,.02,17.03-.02,15.37,.01,9.15,.02c-2.39,0-4.35,0-5.63,0V1.56c6.86-.44,14.13-.57,21.75-.26,1.64,.07,3.26,.15,4.86,.26-.68-.43-1.37-.85-2.05-1.28Z"/></g></g></svg>