<?xml version="1.0" encoding="UTF-8"?><svg id="Layer_2" xmlns="http://www.w3.org/2000/svg" width="210.08" height="238.03" viewBox="0 0 210.08 238.03"><defs><style>.cls-1{fill:#003771;}</style></defs><g id="Layer_1-2"><g><g><path class="cls-1" d="M0,238.03v-5.03c7.5-.18,13.79-2.12,18.88-5.83,5.08-3.71,8.91-9.85,11.5-18.42,2.58-8.57,3.88-20.01,3.88-34.31V28.7c0-6.53-.5-11.35-1.5-14.44-1-3.09-2.96-5.21-5.88-6.36-2.92-1.15-7.21-1.81-12.88-1.99V.61c3.5,.18,8.08,.36,13.75,.53,5.66,.18,11.58,.27,17.75,.27s12.12-.09,17.88-.27c5.75-.17,10.54-.35,14.38-.53V5.91c-5.67,.18-9.96,.84-12.88,1.99-2.92,1.15-4.88,3.27-5.88,6.36-1,3.09-1.5,7.91-1.5,14.44V125.68c0,7.25-.09,15.1-.25,23.58-.17,8.48-.54,16.69-1.12,24.64-.59,7.95-1.54,14.93-2.88,20.93-2.84,12.36-8.79,22.66-17.88,30.87-9.09,8.21-20.88,12.32-35.38,12.32Z"/><path class="cls-1" d="M35.5,.55c3.5,.17,8.08,.34,13.75,.5,5.66,.17,11.25,.25,16.75,.25,7.83,0,15.33-.08,22.5-.25,7.16-.16,12.25-.25,15.25-.25,17.5,0,30.66,3.67,39.5,10.99,8.83,7.33,13.25,16.74,13.25,28.23,0,5.83-1.21,11.54-3.62,17.12-2.42,5.58-6.42,10.66-12,15.24-5.59,4.58-13.04,8.29-22.38,11.12v.5c13.16,1.67,23.46,4.79,30.88,9.37,7.41,4.58,12.62,9.96,15.62,16.12,3,6.16,4.5,12.66,4.5,19.49,0,9.49-2.38,17.87-7.12,25.11s-11.62,12.95-20.62,17.12c-9,4.17-19.75,6.25-32.25,6.25-3.67,0-9.17-.12-16.5-.38-7.34-.25-16.17-.37-26.5-.37-5.84,0-11.59,.04-17.25,.12-5.67,.09-10.25,.29-13.75,.62v-5c5.66-.33,9.96-1,12.88-2,2.91-1,4.88-3,5.88-6s1.5-7.5,1.5-13.49V27.04c0-6.16-.5-10.7-1.5-13.62-1-2.91-2.96-4.91-5.88-6-2.92-1.08-7.21-1.71-12.88-1.87V.55Zm62,5c-7.67,0-12.67,1.42-15,4.25-2.34,2.83-3.5,8.58-3.5,17.24v123.93c0,5.83,.5,10.24,1.5,13.24,1,3,2.83,5,5.5,6,2.66,1,6.58,1.5,11.75,1.5,16.33,0,28.21-3.79,35.62-11.37,7.41-7.58,11.12-18.37,11.12-32.36,0-12.83-3.46-22.74-10.38-29.73-6.92-7-18.29-10.49-34.12-10.49h-25.75v-4.25h21.5c9.83,0,17.41-1.87,22.75-5.62,5.33-3.75,9-8.75,11-14.99,2-6.25,3-12.95,3-20.11,0-12.33-2.71-21.61-8.12-27.86-5.42-6.25-14.38-9.37-26.88-9.37Z"/><g><path class="cls-1" d="M62.32,222.28v-.79c.89-.05,1.57-.16,2.03-.31,.46-.16,.77-.47,.92-.94,.16-.47,.24-1.18,.24-2.12v-19.5c0-.97-.08-1.68-.24-2.14s-.47-.77-.92-.94c-.46-.17-1.13-.27-2.03-.29v-.79c.55,.03,1.27,.05,2.16,.08,.89,.03,1.85,.04,2.87,.04,.92,0,1.83-.01,2.73-.04,.9-.03,1.66-.05,2.26-.08v.79c-.89,.03-1.57,.12-2.02,.29-.46,.17-.77,.49-.92,.94s-.24,1.17-.24,2.14v19.5c0,.94,.08,1.65,.24,2.12,.16,.47,.47,.79,.92,.94,.46,.16,1.13,.26,2.02,.31v.79c-.6-.05-1.36-.08-2.26-.1s-1.82-.02-2.73-.02c-1.02,0-1.98,0-2.87,.02-.89,.01-1.61,.05-2.16,.1Zm5.47-13.6v-.79h15.53v.79h-15.53Zm10.97,13.6v-.79c.89-.05,1.57-.16,2.03-.31,.46-.16,.77-.47,.92-.94,.16-.47,.24-1.18,.24-2.12v-19.5c0-.97-.08-1.68-.24-2.14s-.47-.77-.92-.94c-.46-.17-1.13-.27-2.03-.29v-.79c.6,.03,1.36,.05,2.28,.08,.92,.03,1.82,.04,2.71,.04,1.02,0,1.98-.01,2.87-.04,.89-.03,1.61-.05,2.16-.08v.79c-.89,.03-1.57,.12-2.02,.29-.46,.17-.77,.49-.92,.94s-.24,1.17-.24,2.14v19.5c0,.94,.08,1.65,.24,2.12,.16,.47,.47,.79,.92,.94,.46,.16,1.13,.26,2.02,.31v.79c-.55-.05-1.27-.08-2.16-.1-.89-.01-1.85-.02-2.87-.02-.89,0-1.79,0-2.71,.02s-1.68,.05-2.28,.1Z"/><path class="cls-1" d="M95.27,218.98l.63,.83-3.66,5.35-.83-.55,3.85-5.62Zm5.23-17.5c1.68,0,3.18,.37,4.52,1.1,1.34,.73,2.41,1.89,3.21,3.46,.8,1.57,1.2,3.62,1.2,6.13s-.4,4.55-1.2,6.11c-.8,1.56-1.87,2.71-3.21,3.44-1.34,.73-2.84,1.1-4.52,1.1s-3.15-.37-4.5-1.1c-1.35-.73-2.42-1.88-3.22-3.44s-1.2-3.6-1.2-6.11,.4-4.56,1.2-6.13,1.87-2.73,3.22-3.46c1.35-.73,2.85-1.1,4.5-1.1Zm0,.79c-1.49,0-2.72,.77-3.68,2.32-.96,1.55-1.43,4.08-1.43,7.59s.48,6.04,1.43,7.57c.96,1.53,2.18,2.3,3.68,2.3s2.72-.77,3.68-2.3c.96-1.53,1.43-4.06,1.43-7.57s-.48-6.04-1.43-7.59c-.96-1.55-2.18-2.32-3.68-2.32Zm4.64,1.69l.59,.79-9.44,15.06-.63-.83,9.48-15.02Zm3.66-4.76l.75,.51-3.42,5.03-.59-.79,3.26-4.76Z"/><path class="cls-1" d="M110.25,229.67v-.59c1.62-.08,2.84-.78,3.66-2.1,.81-1.32,1.22-3.14,1.22-5.45v-15.22c0-1.18-.21-2.05-.63-2.61-.42-.56-1.21-.85-2.36-.85v-.83c.84,.08,1.65,.12,2.44,.12s1.49-.05,2.18-.14c.69-.09,1.33-.23,1.91-.41v16.16c0,1.31-.09,2.56-.27,3.74-.18,1.18-.49,2.25-.9,3.22-.42,.97-.97,1.82-1.65,2.56-.66,.71-1.46,1.28-2.42,1.73-.96,.45-2.01,.67-3.17,.67Zm6.29-37.47c.68,0,1.27,.25,1.77,.75,.5,.5,.75,1.09,.75,1.77s-.25,1.27-.75,1.77c-.5,.5-1.09,.75-1.77,.75s-1.27-.25-1.77-.75c-.5-.5-.75-1.09-.75-1.77s.25-1.27,.75-1.77c.5-.5,1.09-.75,1.77-.75Z"/><path class="cls-1" d="M129.95,201.48c1.05,0,1.94,.17,2.67,.51,.73,.34,1.27,.66,1.61,.94,.87,.71,1.39,.24,1.57-1.42h.9c-.05,.73-.09,1.61-.12,2.61-.03,1.01-.04,2.37-.04,4.07h-.9c-.16-.97-.43-1.91-.81-2.83s-.94-1.67-1.67-2.26c-.73-.59-1.69-.88-2.87-.88-.92,0-1.68,.26-2.3,.77-.62,.51-.92,1.27-.92,2.26,0,.79,.24,1.46,.71,2.02,.47,.56,1.09,1.09,1.85,1.57,.76,.49,1.58,1.02,2.48,1.59,1,.63,1.9,1.27,2.71,1.93,.81,.66,1.46,1.38,1.95,2.16,.49,.79,.73,1.72,.73,2.79,0,1.21-.31,2.22-.94,3.03-.63,.81-1.45,1.43-2.46,1.85s-2.12,.63-3.32,.63c-.58,0-1.12-.05-1.63-.14-.51-.09-1-.23-1.47-.41-.26-.13-.53-.29-.81-.47-.28-.18-.54-.38-.81-.59-.26-.21-.5-.2-.71,.02-.21,.22-.37,.66-.47,1.32h-.9c.05-.84,.09-1.86,.12-3.07,.03-1.21,.04-2.8,.04-4.8h.9c.18,1.47,.45,2.75,.79,3.85s.88,1.96,1.61,2.58c.73,.62,1.76,.92,3.07,.92,.52,0,1.06-.12,1.59-.35s.99-.63,1.36-1.18c.37-.55,.55-1.28,.55-2.2,0-1.15-.42-2.1-1.26-2.83-.84-.73-1.9-1.51-3.18-2.32-.94-.6-1.83-1.21-2.65-1.81-.83-.6-1.49-1.28-2-2.04-.51-.76-.77-1.68-.77-2.75,0-1.18,.27-2.14,.81-2.89s1.25-1.3,2.14-1.65c.89-.35,1.85-.53,2.87-.53Z"/><path class="cls-1" d="M146.66,191.45v27.17c0,1.1,.2,1.85,.59,2.24s1.06,.59,2,.59v.83c-.42-.03-1.04-.06-1.87-.1-.83-.04-1.66-.06-2.5-.06-.89,0-1.8,.02-2.71,.06-.92,.04-1.6,.07-2.04,.1v-.83c1.08,0,1.84-.2,2.3-.59,.46-.39,.69-1.14,.69-2.24v-22.45c0-1.18-.21-2.05-.63-2.61-.42-.56-1.21-.85-2.36-.85v-.83c.84,.08,1.65,.12,2.44,.12s1.49-.05,2.18-.14c.69-.09,1.33-.23,1.91-.41Zm12.5,10.58v.79c-.66,.05-1.27,.23-1.85,.53s-1.14,.74-1.69,1.32l-5.54,5.82,.55-1.1,7.31,10.03c.45,.6,.87,1.07,1.28,1.42s.9,.55,1.47,.63v.83c-.29-.03-.74-.06-1.36-.1-.62-.04-1.23-.06-1.83-.06-.81,0-1.64,.02-2.48,.06-.84,.04-1.47,.07-1.89,.1v-.83c.52,0,.89-.13,1.1-.39,.21-.26,.17-.58-.12-.94l-4.52-6.61c-.5-.71-.95-1.17-1.36-1.38-.41-.21-.99-.33-1.75-.35v-.79c.84-.1,1.52-.28,2.04-.53,.52-.25,1.02-.62,1.49-1.12l2.91-3.03c.84-.86,1.26-1.55,1.26-2.06s-.27-.88-.81-1.1c-.54-.22-1.24-.33-2.1-.33v-.79c.68,.03,1.45,.06,2.3,.1,.85,.04,1.57,.06,2.14,.06,.45,0,.88,0,1.3-.02s.81-.03,1.18-.06c.37-.03,.68-.05,.94-.08Z"/><path class="cls-1" d="M170.64,201.48c1.68,0,3.18,.37,4.52,1.1,1.34,.73,2.41,1.89,3.21,3.46,.8,1.57,1.2,3.62,1.2,6.13s-.4,4.55-1.2,6.11c-.8,1.56-1.87,2.71-3.21,3.44-1.34,.73-2.84,1.1-4.52,1.1s-3.15-.37-4.5-1.1c-1.35-.73-2.42-1.88-3.22-3.44s-1.2-3.6-1.2-6.11,.4-4.56,1.2-6.13,1.87-2.73,3.22-3.46c1.35-.73,2.85-1.1,4.5-1.1Zm0,.79c-1.49,0-2.72,.77-3.68,2.32-.96,1.55-1.43,4.08-1.43,7.59s.48,6.04,1.43,7.57c.96,1.53,2.18,2.3,3.68,2.3s2.72-.77,3.68-2.3c.96-1.53,1.43-4.06,1.43-7.57s-.48-6.04-1.43-7.59c-.96-1.55-2.18-2.32-3.68-2.32Z"/><path class="cls-1" d="M188.41,191.45v27.17c0,1.1,.23,1.85,.69,2.24,.46,.39,1.23,.59,2.3,.59v.83c-.45-.03-1.12-.06-2.02-.1-.9-.04-1.82-.06-2.73-.06s-1.8,.02-2.71,.06c-.92,.04-1.6,.07-2.04,.1v-.83c1.07,0,1.84-.2,2.3-.59,.46-.39,.69-1.14,.69-2.24v-22.45c0-1.18-.21-2.05-.63-2.61-.42-.56-1.21-.85-2.36-.85v-.83c.84,.08,1.65,.12,2.44,.12s1.49-.05,2.18-.14c.69-.09,1.33-.23,1.91-.41Z"/><path class="cls-1" d="M202.57,201.48c2.31,0,4.11,.7,5.41,2.1,1.3,1.4,1.95,3.58,1.95,6.55h-13.88l-.04-.75h10.14c.05-1.28-.05-2.47-.32-3.56-.26-1.09-.67-1.96-1.24-2.61s-1.29-.98-2.18-.98c-1.21,0-2.27,.6-3.21,1.81-.93,1.21-1.49,3.12-1.67,5.74l.12,.16c-.05,.39-.09,.83-.12,1.3-.03,.47-.04,.94-.04,1.42,0,1.78,.29,3.32,.86,4.6,.58,1.28,1.33,2.26,2.26,2.93,.93,.67,1.89,1,2.89,1,.79,0,1.53-.12,2.24-.37,.71-.25,1.36-.66,1.97-1.24,.6-.58,1.13-1.35,1.57-2.32l.79,.31c-.29,.86-.76,1.7-1.42,2.52s-1.48,1.47-2.48,1.99c-1,.51-2.15,.77-3.46,.77-1.89,0-3.51-.43-4.86-1.3-1.35-.87-2.39-2.06-3.11-3.6-.72-1.53-1.08-3.3-1.08-5.29,0-2.31,.37-4.29,1.1-5.96,.73-1.66,1.77-2.95,3.11-3.85s2.9-1.36,4.68-1.36Z"/></g></g><path class="cls-1" d="M109.77,1.08C96.36,.43,85.37,.18,77.77,.08,66.55-.08,60.04,.04,35.77,.08c-9.34,.01-16.99,0-22,0V6.08c26.82-1.72,55.21-2.22,85-1,6.41,.26,12.75,.6,19,1-2.67-1.67-5.33-3.33-8-5Z"/></g></g></svg>