<?xml version="1.0" encoding="UTF-8"?><svg id="Layer_2" xmlns="http://www.w3.org/2000/svg" width="30.07" height="34.08" viewBox="0 0 30.07 34.08"><defs><style>.cls-1{fill:#fff;}</style></defs><g id="Layer_1-2"><g><g><path class="cls-1" d="M0,34.08v-.72c1.07-.03,1.97-.3,2.7-.83,.73-.53,1.28-1.41,1.65-2.64,.37-1.23,.55-2.86,.55-4.91V4.11c0-.94-.07-1.62-.21-2.07-.14-.44-.42-.75-.84-.91-.42-.16-1.03-.26-1.84-.28V.09c.5,.03,1.16,.05,1.97,.08,.81,.03,1.66,.04,2.54,.04s1.74-.01,2.56-.04c.82-.02,1.51-.05,2.06-.08V.85c-.81,.03-1.43,.12-1.84,.28-.42,.16-.7,.47-.84,.91-.14,.44-.21,1.13-.21,2.07v13.88c0,1.04-.01,2.16-.04,3.38-.02,1.21-.08,2.39-.16,3.53-.08,1.14-.22,2.14-.41,3-.41,1.77-1.26,3.24-2.56,4.42-1.3,1.18-2.99,1.76-5.06,1.76Z"/><path class="cls-1" d="M5.08,.08c.5,.02,1.16,.05,1.97,.07,.81,.02,1.61,.04,2.4,.04,1.12,0,2.19-.01,3.22-.04,1.03-.02,1.75-.04,2.18-.04,2.51,0,4.39,.52,5.65,1.57,1.26,1.05,1.9,2.4,1.9,4.04,0,.84-.17,1.65-.52,2.45-.35,.8-.92,1.53-1.72,2.18-.8,.66-1.87,1.19-3.2,1.59v.07c1.88,.24,3.36,.69,4.42,1.34,1.06,.66,1.81,1.43,2.24,2.31,.43,.88,.64,1.81,.64,2.79,0,1.36-.34,2.56-1.02,3.59s-1.66,1.85-2.95,2.45c-1.29,.6-2.83,.89-4.62,.89-.53,0-1.31-.02-2.36-.05-1.05-.04-2.31-.05-3.79-.05-.84,0-1.66,0-2.47,.02-.81,.01-1.47,.04-1.97,.09v-.72c.81-.05,1.43-.14,1.84-.29,.42-.14,.7-.43,.84-.86s.21-1.07,.21-1.93V3.87c0-.88-.07-1.53-.21-1.95-.14-.42-.42-.7-.84-.86-.42-.15-1.03-.24-1.84-.27V.08ZM13.96,.79c-1.1,0-1.81,.2-2.15,.61-.33,.41-.5,1.23-.5,2.47V21.61c0,.83,.07,1.47,.21,1.9,.14,.43,.41,.72,.79,.86,.38,.14,.94,.21,1.68,.21,2.34,0,4.04-.54,5.1-1.63,1.06-1.08,1.59-2.63,1.59-4.63,0-1.84-.5-3.26-1.49-4.26-.99-1-2.62-1.5-4.89-1.5h-3.69v-.61h3.08c1.41,0,2.49-.27,3.26-.8,.76-.54,1.29-1.25,1.57-2.15,.29-.89,.43-1.85,.43-2.88,0-1.76-.39-3.09-1.16-3.99-.78-.89-2.06-1.34-3.85-1.34Z"/><g><path class="cls-1" d="M8.92,31.82v-.11c.13,0,.22-.02,.29-.05,.07-.02,.11-.07,.13-.14,.02-.07,.03-.17,.03-.3v-2.79c0-.14-.01-.24-.03-.31s-.07-.11-.13-.14c-.07-.02-.16-.04-.29-.04v-.11c.08,0,.18,0,.31,.01,.13,0,.26,0,.41,0,.13,0,.26,0,.39,0,.13,0,.24,0,.32-.01v.11c-.13,0-.22,.02-.29,.04-.07,.02-.11,.07-.13,.14s-.03,.17-.03,.31v2.79c0,.14,.01,.24,.03,.3,.02,.07,.07,.11,.13,.14,.07,.02,.16,.04,.29,.05v.11c-.09,0-.19-.01-.32-.01s-.26,0-.39,0c-.15,0-.28,0-.41,0-.13,0-.23,0-.31,.01Zm.78-1.95v-.11h2.22v.11h-2.22Zm1.57,1.95v-.11c.13,0,.22-.02,.29-.05,.07-.02,.11-.07,.13-.14,.02-.07,.03-.17,.03-.3v-2.79c0-.14-.01-.24-.03-.31s-.07-.11-.13-.14c-.07-.02-.16-.04-.29-.04v-.11c.09,0,.2,0,.33,.01,.13,0,.26,0,.39,0,.15,0,.28,0,.41,0,.13,0,.23,0,.31-.01v.11c-.13,0-.22,.02-.29,.04-.07,.02-.11,.07-.13,.14s-.03,.17-.03,.31v2.79c0,.14,.01,.24,.03,.3,.02,.07,.07,.11,.13,.14,.07,.02,.16,.04,.29,.05v.11c-.08,0-.18-.01-.31-.01-.13,0-.26,0-.41,0-.13,0-.26,0-.39,0s-.24,0-.33,.01Z"/><path class="cls-1" d="M13.64,31.35l.09,.12-.52,.77-.12-.08,.55-.8Zm.75-2.5c.24,0,.46,.05,.65,.16,.19,.11,.34,.27,.46,.5,.11,.23,.17,.52,.17,.88s-.06,.65-.17,.88c-.11,.22-.27,.39-.46,.49-.19,.1-.41,.16-.65,.16s-.45-.05-.64-.16c-.19-.11-.35-.27-.46-.49s-.17-.52-.17-.88,.06-.65,.17-.88,.27-.39,.46-.5c.19-.1,.41-.16,.64-.16Zm0,.11c-.21,0-.39,.11-.53,.33-.14,.22-.21,.58-.21,1.09s.07,.86,.21,1.08c.14,.22,.31,.33,.53,.33s.39-.11,.53-.33c.14-.22,.21-.58,.21-1.08s-.07-.86-.21-1.09c-.14-.22-.31-.33-.53-.33Zm.66,.24l.08,.11-1.35,2.16-.09-.12,1.36-2.15Zm.52-.68l.11,.07-.49,.72-.08-.11,.47-.68Z"/><path class="cls-1" d="M15.78,32.88v-.08c.23-.01,.41-.11,.52-.3,.12-.19,.17-.45,.17-.78v-2.18c0-.17-.03-.29-.09-.37-.06-.08-.17-.12-.34-.12v-.12c.12,.01,.24,.02,.35,.02s.21,0,.31-.02c.1-.01,.19-.03,.27-.06v2.31c0,.19-.01,.37-.04,.53-.03,.17-.07,.32-.13,.46-.06,.14-.14,.26-.24,.37-.09,.1-.21,.18-.35,.25-.14,.06-.29,.1-.45,.1Zm.9-5.36c.1,0,.18,.04,.25,.11,.07,.07,.11,.16,.11,.25s-.04,.18-.11,.25c-.07,.07-.16,.11-.25,.11s-.18-.04-.25-.11c-.07-.07-.11-.16-.11-.25s.04-.18,.11-.25c.07-.07,.16-.11,.25-.11Z"/><path class="cls-1" d="M18.6,28.84c.15,0,.28,.02,.38,.07,.1,.05,.18,.09,.23,.14,.12,.1,.2,.03,.23-.2h.13c0,.11-.01,.23-.02,.37,0,.14,0,.34,0,.58h-.13c-.02-.14-.06-.27-.12-.41s-.13-.24-.24-.32c-.1-.08-.24-.13-.41-.13-.13,0-.24,.04-.33,.11-.09,.07-.13,.18-.13,.32,0,.11,.03,.21,.1,.29,.07,.08,.16,.16,.26,.23,.11,.07,.23,.15,.35,.23,.14,.09,.27,.18,.39,.28,.12,.09,.21,.2,.28,.31,.07,.11,.1,.25,.1,.4,0,.17-.05,.32-.14,.43-.09,.12-.21,.2-.35,.26s-.3,.09-.48,.09c-.08,0-.16,0-.23-.02-.07-.01-.14-.03-.21-.06-.04-.02-.08-.04-.12-.07-.04-.03-.08-.05-.12-.08-.04-.03-.07-.03-.1,0-.03,.03-.05,.09-.07,.19h-.13c0-.12,.01-.27,.02-.44,0-.17,0-.4,0-.69h.13c.03,.21,.06,.39,.11,.55s.13,.28,.23,.37c.1,.09,.25,.13,.44,.13,.08,0,.15-.02,.23-.05s.14-.09,.19-.17c.05-.08,.08-.18,.08-.32,0-.17-.06-.3-.18-.41-.12-.1-.27-.22-.46-.33-.14-.09-.26-.17-.38-.26-.12-.09-.21-.18-.29-.29-.07-.11-.11-.24-.11-.39,0-.17,.04-.31,.12-.41s.18-.19,.31-.24c.13-.05,.26-.08,.41-.08Z"/><path class="cls-1" d="M21,27.41v3.89c0,.16,.03,.26,.08,.32s.15,.08,.29,.08v.12c-.06,0-.15,0-.27-.01-.12,0-.24,0-.36,0-.13,0-.26,0-.39,0-.13,0-.23,.01-.29,.01v-.12c.15,0,.26-.03,.33-.08,.07-.06,.1-.16,.1-.32v-3.21c0-.17-.03-.29-.09-.37-.06-.08-.17-.12-.34-.12v-.12c.12,.01,.24,.02,.35,.02s.21,0,.31-.02c.1-.01,.19-.03,.27-.06Zm1.79,1.51v.11c-.09,0-.18,.03-.26,.08s-.16,.11-.24,.19l-.79,.83,.08-.16,1.05,1.44c.06,.09,.12,.15,.18,.2s.13,.08,.21,.09v.12s-.11,0-.19-.01c-.09,0-.18,0-.26,0-.12,0-.23,0-.35,0-.12,0-.21,.01-.27,.01v-.12c.08,0,.13-.02,.16-.06,.03-.04,.02-.08-.02-.14l-.65-.95c-.07-.1-.14-.17-.19-.2-.06-.03-.14-.05-.25-.05v-.11c.12-.01,.22-.04,.29-.08,.07-.04,.15-.09,.21-.16l.42-.43c.12-.12,.18-.22,.18-.3s-.04-.13-.12-.16c-.08-.03-.18-.05-.3-.05v-.11c.1,0,.21,0,.33,.01,.12,0,.22,0,.31,0,.06,0,.13,0,.19,0s.12,0,.17,0c.05,0,.1,0,.14-.01Z"/><path class="cls-1" d="M24.43,28.84c.24,0,.46,.05,.65,.16,.19,.11,.34,.27,.46,.5,.11,.23,.17,.52,.17,.88s-.06,.65-.17,.88c-.11,.22-.27,.39-.46,.49-.19,.1-.41,.16-.65,.16s-.45-.05-.64-.16c-.19-.11-.35-.27-.46-.49s-.17-.52-.17-.88,.06-.65,.17-.88,.27-.39,.46-.5c.19-.1,.41-.16,.64-.16Zm0,.11c-.21,0-.39,.11-.53,.33-.14,.22-.21,.58-.21,1.09s.07,.86,.21,1.08c.14,.22,.31,.33,.53,.33s.39-.11,.53-.33c.14-.22,.21-.58,.21-1.08s-.07-.86-.21-1.09c-.14-.22-.31-.33-.53-.33Z"/><path class="cls-1" d="M26.97,27.41v3.89c0,.16,.03,.26,.1,.32,.07,.06,.18,.08,.33,.08v.12c-.06,0-.16,0-.29-.01-.13,0-.26,0-.39,0s-.26,0-.39,0c-.13,0-.23,.01-.29,.01v-.12c.15,0,.26-.03,.33-.08,.07-.06,.1-.16,.1-.32v-3.21c0-.17-.03-.29-.09-.37-.06-.08-.17-.12-.34-.12v-.12c.12,.01,.24,.02,.35,.02s.21,0,.31-.02c.1-.01,.19-.03,.27-.06Z"/><path class="cls-1" d="M29,28.84c.33,0,.59,.1,.77,.3,.19,.2,.28,.51,.28,.94h-1.99v-.11s1.45,0,1.45,0c0-.18,0-.35-.05-.51-.04-.16-.1-.28-.18-.37s-.18-.14-.31-.14c-.17,0-.33,.09-.46,.26-.13,.17-.21,.45-.24,.82l.02,.02c0,.06-.01,.12-.02,.19,0,.07,0,.14,0,.2,0,.26,.04,.47,.12,.66,.08,.18,.19,.32,.32,.42,.13,.1,.27,.14,.41,.14,.11,0,.22-.02,.32-.05,.1-.04,.2-.09,.28-.18,.09-.08,.16-.19,.23-.33l.11,.05c-.04,.12-.11,.24-.2,.36s-.21,.21-.35,.28c-.14,.07-.31,.11-.5,.11-.27,0-.5-.06-.7-.19-.19-.12-.34-.3-.44-.52-.1-.22-.15-.47-.15-.76,0-.33,.05-.61,.16-.85,.11-.24,.25-.42,.44-.55s.41-.19,.67-.19Z"/></g></g><path class="cls-1" d="M15.71,.15C13.79,.06,12.22,.03,11.13,.01,9.53-.01,8.6,0,5.12,.01,3.78,.01,2.69,.01,1.97,.01V.87c3.84-.25,7.9-.32,12.17-.14,.92,.04,1.82,.09,2.72,.14-.38-.24-.76-.48-1.15-.72Z"/></g></g></svg>