<?xml version="1.0" encoding="UTF-8"?><svg id="Layer_2" xmlns="http://www.w3.org/2000/svg" width="108.77" height="123.24" viewBox="0 0 108.77 123.24"><defs><style>.cls-1{fill:#fff;}</style></defs><g id="Layer_1-2"><g><g><path class="cls-1" d="M0,123.24v-2.61c3.88-.09,7.14-1.1,9.77-3.02,2.63-1.92,4.62-5.1,5.95-9.53,1.34-4.44,2.01-10.36,2.01-17.77V14.86c0-3.38-.26-5.88-.78-7.48-.52-1.6-1.53-2.7-3.04-3.29-1.51-.59-3.73-.94-6.67-1.03V.32c1.81,.09,4.18,.18,7.12,.27,2.93,.09,6,.14,9.19,.14s6.28-.04,9.25-.14c2.98-.09,5.46-.18,7.44-.27V3.06c-2.93,.09-5.16,.44-6.67,1.03-1.51,.6-2.52,1.69-3.04,3.29-.52,1.6-.78,4.09-.78,7.48v50.21c0,3.75-.04,7.82-.13,12.21-.09,4.39-.28,8.64-.58,12.76-.3,4.12-.8,7.73-1.49,10.84-1.47,6.4-4.55,11.73-9.25,15.98-4.7,4.25-10.81,6.38-18.32,6.38Z"/><path class="cls-1" d="M18.38,.29c1.81,.09,4.18,.17,7.12,.26,2.93,.09,5.82,.13,8.67,.13,4.06,0,7.94-.04,11.65-.13,3.71-.08,6.34-.13,7.9-.13,9.06,0,15.88,1.9,20.45,5.69,4.57,3.8,6.86,8.67,6.86,14.62,0,3.02-.63,5.97-1.88,8.86-1.25,2.89-3.32,5.52-6.21,7.89-2.89,2.37-6.75,4.29-11.58,5.76v.26c6.82,.86,12.14,2.48,15.99,4.85,3.84,2.37,6.54,5.15,8.09,8.34,1.55,3.19,2.33,6.56,2.33,10.09,0,4.92-1.23,9.25-3.69,13s-6.02,6.71-10.68,8.86c-4.66,2.16-10.23,3.23-16.7,3.23-1.9,0-4.75-.06-8.54-.19-3.8-.13-8.37-.19-13.72-.19-3.02,0-6,.02-8.93,.06-2.93,.04-5.31,.15-7.12,.32v-2.59c2.93-.17,5.16-.52,6.67-1.03,1.51-.52,2.52-1.55,3.04-3.1,.52-1.55,.78-3.88,.78-6.99V14c0-3.19-.26-5.54-.78-7.05-.52-1.51-1.53-2.54-3.04-3.1-1.51-.56-3.73-.88-6.67-.97V.29ZM50.48,2.87c-3.97,0-6.56,.73-7.77,2.2-1.21,1.47-1.81,4.44-1.81,8.93V78.17c0,3.02,.26,5.3,.78,6.86,.52,1.55,1.47,2.59,2.85,3.1,1.38,.52,3.41,.78,6.08,.78,8.46,0,14.6-1.96,18.44-5.89,3.84-3.92,5.76-9.51,5.76-16.75,0-6.64-1.79-11.77-5.37-15.39-3.58-3.62-9.47-5.43-17.67-5.43h-13.33v-2.2h11.13c5.09,0,9.02-.97,11.78-2.91,2.76-1.94,4.66-4.53,5.7-7.76,1.04-3.23,1.55-6.7,1.55-10.41,0-6.38-1.4-11.19-4.21-14.42-2.81-3.23-7.44-4.85-13.91-4.85Z"/><g><path class="cls-1" d="M32.26,115.08v-.41c.46-.03,.81-.08,1.05-.16,.24-.08,.4-.24,.48-.49,.08-.24,.12-.61,.12-1.1v-10.1c0-.5-.04-.87-.12-1.11s-.24-.4-.48-.49c-.24-.09-.59-.14-1.05-.15v-.41c.29,.01,.66,.03,1.12,.04,.46,.01,.96,.02,1.49,.02,.47,0,.95,0,1.41-.02,.47-.01,.86-.03,1.17-.04v.41c-.46,.01-.81,.06-1.05,.15-.24,.09-.4,.25-.48,.49s-.12,.61-.12,1.11v10.1c0,.49,.04,.85,.12,1.1,.08,.24,.24,.41,.48,.49,.24,.08,.59,.14,1.05,.16v.41c-.31-.03-.7-.04-1.17-.05s-.94-.01-1.41-.01c-.53,0-1.02,0-1.49,.01-.46,0-.83,.02-1.12,.05Zm2.83-7.04v-.41h8.04v.41h-8.04Zm5.68,7.04v-.41c.46-.03,.81-.08,1.05-.16,.24-.08,.4-.24,.48-.49,.08-.24,.12-.61,.12-1.1v-10.1c0-.5-.04-.87-.12-1.11s-.24-.4-.48-.49c-.24-.09-.59-.14-1.05-.15v-.41c.31,.01,.71,.03,1.18,.04,.48,.01,.94,.02,1.4,.02,.53,0,1.02,0,1.49-.02,.46-.01,.83-.03,1.12-.04v.41c-.46,.01-.81,.06-1.05,.15-.24,.09-.4,.25-.48,.49s-.12,.61-.12,1.11v10.1c0,.49,.04,.85,.12,1.1,.08,.24,.24,.41,.48,.49,.24,.08,.59,.14,1.05,.16v.41c-.29-.03-.66-.04-1.12-.05-.46,0-.96-.01-1.49-.01-.46,0-.93,0-1.4,.01s-.87,.02-1.18,.05Z"/><path class="cls-1" d="M49.32,113.37l.33,.43-1.89,2.77-.43-.28,2-2.91Zm2.71-9.06c.87,0,1.65,.19,2.34,.57,.69,.38,1.25,.98,1.66,1.79,.41,.81,.62,1.87,.62,3.18s-.21,2.36-.62,3.17c-.41,.81-.97,1.4-1.66,1.78-.69,.38-1.47,.57-2.34,.57s-1.63-.19-2.33-.57c-.7-.38-1.26-.97-1.67-1.78s-.62-1.86-.62-3.17,.21-2.36,.62-3.18,.97-1.41,1.67-1.79c.7-.38,1.48-.57,2.33-.57Zm0,.41c-.77,0-1.41,.4-1.9,1.2-.5,.8-.74,2.11-.74,3.93s.25,3.12,.74,3.92c.5,.79,1.13,1.19,1.9,1.19s1.41-.4,1.9-1.19c.49-.79,.74-2.1,.74-3.92s-.25-3.13-.74-3.93c-.5-.8-1.13-1.2-1.9-1.2Zm2.4,.88l.31,.41-4.89,7.8-.33-.43,4.91-7.78Zm1.89-2.46l.39,.26-1.77,2.61-.31-.41,1.69-2.46Z"/><path class="cls-1" d="M57.08,118.91v-.31c.84-.04,1.47-.4,1.89-1.09,.42-.69,.63-1.63,.63-2.82v-7.88c0-.61-.11-1.06-.33-1.35-.22-.29-.62-.44-1.22-.44v-.43c.43,.04,.85,.06,1.26,.06s.77-.02,1.13-.07c.36-.05,.69-.12,.99-.21v8.37c0,.68-.05,1.32-.14,1.93-.1,.61-.25,1.17-.47,1.67-.22,.5-.5,.94-.85,1.32-.34,.37-.76,.66-1.25,.9-.5,.23-1.04,.35-1.64,.35Zm3.26-19.4c.35,0,.66,.13,.92,.39,.26,.26,.39,.56,.39,.92s-.13,.66-.39,.92c-.26,.26-.56,.39-.92,.39s-.66-.13-.92-.39c-.26-.26-.39-.56-.39-.92s.13-.66,.39-.92c.26-.26,.56-.39,.92-.39Z"/><path class="cls-1" d="M67.28,104.31c.54,0,1,.09,1.38,.26,.38,.18,.66,.34,.83,.49,.45,.37,.72,.12,.81-.73h.47c-.03,.38-.05,.83-.06,1.35-.01,.52-.02,1.23-.02,2.11h-.47c-.08-.5-.22-.99-.42-1.47s-.49-.87-.87-1.17c-.38-.31-.88-.46-1.49-.46-.48,0-.87,.13-1.19,.4-.32,.26-.48,.66-.48,1.17,0,.41,.12,.76,.37,1.05,.24,.29,.56,.56,.96,.81,.39,.25,.82,.53,1.28,.82,.52,.33,.98,.66,1.4,1,.42,.34,.76,.71,1.01,1.12,.25,.41,.38,.89,.38,1.45,0,.62-.16,1.15-.49,1.57-.33,.42-.75,.74-1.27,.96s-1.1,.33-1.72,.33c-.3,0-.58-.02-.84-.07-.26-.05-.52-.12-.76-.21-.14-.07-.27-.15-.42-.24-.14-.09-.28-.2-.42-.31-.14-.11-.26-.1-.37,.01-.11,.12-.19,.34-.24,.68h-.47c.03-.43,.05-.96,.06-1.59,.01-.62,.02-1.45,.02-2.48h.47c.09,.76,.23,1.43,.41,2s.45,1.01,.83,1.33c.38,.32,.91,.48,1.59,.48,.27,0,.55-.06,.82-.18s.51-.33,.7-.61c.19-.28,.29-.66,.29-1.14,0-.6-.22-1.09-.65-1.47-.43-.38-.98-.78-1.65-1.2-.49-.31-.95-.62-1.37-.94-.43-.31-.77-.66-1.04-1.06-.26-.39-.4-.87-.4-1.43,0-.61,.14-1.11,.42-1.5s.65-.67,1.11-.85c.46-.18,.96-.27,1.49-.27Z"/><path class="cls-1" d="M75.93,99.12v14.07c0,.57,.1,.96,.31,1.16s.55,.31,1.04,.31v.43c-.22-.01-.54-.03-.97-.05-.43-.02-.86-.03-1.29-.03-.46,0-.93,.01-1.4,.03-.48,.02-.83,.04-1.06,.05v-.43c.56,0,.95-.1,1.19-.31,.24-.2,.36-.59,.36-1.16v-11.62c0-.61-.11-1.06-.33-1.35-.22-.29-.62-.44-1.22-.44v-.43c.43,.04,.85,.06,1.26,.06s.77-.02,1.13-.07c.36-.05,.69-.12,.99-.21Zm6.47,5.48v.41c-.34,.03-.66,.12-.96,.28s-.59,.38-.88,.68l-2.87,3.01,.29-.57,3.79,5.19c.23,.31,.45,.56,.66,.73s.46,.28,.76,.33v.43c-.15-.01-.38-.03-.7-.05-.32-.02-.63-.03-.95-.03-.42,0-.85,.01-1.28,.03-.43,.02-.76,.04-.98,.05v-.43c.27,0,.46-.07,.57-.2,.11-.14,.09-.3-.06-.49l-2.34-3.42c-.26-.37-.49-.6-.7-.71-.21-.11-.51-.17-.91-.18v-.41c.43-.05,.79-.15,1.06-.27,.27-.13,.53-.32,.77-.58l1.51-1.57c.43-.45,.65-.8,.65-1.07s-.14-.45-.42-.57c-.28-.12-.64-.17-1.09-.17v-.41c.35,.01,.75,.03,1.19,.05,.44,.02,.81,.03,1.11,.03,.23,0,.45,0,.67-.01s.42-.02,.61-.03c.19-.01,.35-.03,.49-.04Z"/><path class="cls-1" d="M88.35,104.31c.87,0,1.65,.19,2.34,.57,.69,.38,1.25,.98,1.66,1.79,.41,.81,.62,1.87,.62,3.18s-.21,2.36-.62,3.17c-.41,.81-.97,1.4-1.66,1.78-.69,.38-1.47,.57-2.34,.57s-1.63-.19-2.33-.57c-.7-.38-1.26-.97-1.67-1.78s-.62-1.86-.62-3.17,.21-2.36,.62-3.18c.41-.81,.97-1.41,1.67-1.79,.7-.38,1.48-.57,2.33-.57Zm0,.41c-.77,0-1.41,.4-1.9,1.2-.5,.8-.74,2.11-.74,3.93s.25,3.12,.74,3.92c.5,.79,1.13,1.19,1.9,1.19s1.41-.4,1.9-1.19c.49-.79,.74-2.1,.74-3.92s-.25-3.13-.74-3.93c-.5-.8-1.13-1.2-1.9-1.2Z"/><path class="cls-1" d="M97.55,99.12v14.07c0,.57,.12,.96,.36,1.16,.24,.2,.63,.31,1.19,.31v.43c-.23-.01-.58-.03-1.05-.05-.47-.02-.94-.03-1.41-.03s-.93,.01-1.41,.03c-.47,.02-.83,.04-1.06,.05v-.43c.56,0,.95-.1,1.19-.31,.24-.2,.36-.59,.36-1.16v-11.62c0-.61-.11-1.06-.33-1.35-.22-.29-.62-.44-1.22-.44v-.43c.43,.04,.85,.06,1.26,.06s.77-.02,1.13-.07c.36-.05,.69-.12,.99-.21Z"/><path class="cls-1" d="M104.88,104.31c1.19,0,2.13,.36,2.8,1.09,.67,.73,1.01,1.86,1.01,3.39h-7.19l-.02-.39h5.25c.03-.66-.03-1.28-.16-1.84-.14-.56-.35-1.01-.64-1.35s-.67-.51-1.13-.51c-.62,0-1.18,.31-1.66,.94-.48,.62-.77,1.62-.87,2.97l.06,.08c-.03,.2-.05,.43-.06,.67-.01,.24-.02,.49-.02,.73,0,.92,.15,1.72,.45,2.38,.3,.67,.69,1.17,1.17,1.52,.48,.35,.98,.52,1.5,.52,.41,0,.79-.06,1.16-.19,.37-.13,.71-.34,1.02-.64,.31-.3,.58-.7,.81-1.2l.41,.16c-.15,.45-.39,.88-.73,1.3s-.77,.76-1.28,1.03c-.52,.26-1.11,.4-1.79,.4-.98,0-1.82-.22-2.51-.67-.7-.45-1.24-1.07-1.61-1.86-.37-.79-.56-1.71-.56-2.74,0-1.19,.19-2.22,.57-3.08,.38-.86,.92-1.53,1.61-1.99s1.5-.7,2.42-.7Z"/></g></g><path class="cls-1" d="M56.83,.56C49.89,.22,44.2,.09,40.26,.04,34.46-.04,31.09,.02,18.52,.04c-4.84,0-8.8,0-11.39,0V3.15c13.89-.89,28.59-1.15,44.01-.52,3.32,.14,6.6,.31,9.84,.52-1.38-.86-2.76-1.73-4.14-2.59Z"/></g></g></svg>