<?xml version="1.0" encoding="UTF-8"?><svg id="Layer_2" xmlns="http://www.w3.org/2000/svg" width="87.44" height="99.08" viewBox="0 0 87.44 99.08"><defs><style>.cls-1{fill:#003771;}</style></defs><g id="Layer_1-2"><g><g><path class="cls-1" d="M0,99.08v-2.1c3.12-.07,5.74-.88,7.86-2.43,2.12-1.54,3.71-4.1,4.79-7.67,1.07-3.57,1.61-8.33,1.61-14.28V11.95c0-2.72-.21-4.72-.62-6.01-.42-1.29-1.23-2.17-2.45-2.65-1.21-.48-3-.75-5.36-.83V.26c1.46,.07,3.36,.15,5.72,.22,2.36,.07,4.82,.11,7.39,.11s5.05-.04,7.44-.11c2.39-.07,4.39-.15,5.98-.22V2.46c-2.36,.07-4.15,.35-5.36,.83-1.21,.48-2.03,1.36-2.45,2.65-.42,1.29-.62,3.29-.62,6.01V52.31c0,3.02-.04,6.29-.1,9.82-.07,3.53-.23,6.95-.47,10.26-.24,3.31-.64,6.21-1.2,8.71-1.18,5.15-3.66,9.43-7.44,12.85-3.78,3.42-8.69,5.13-14.72,5.13Z"/><path class="cls-1" d="M14.78,.23c1.46,.07,3.36,.14,5.72,.21,2.36,.07,4.68,.1,6.97,.1,3.26,0,6.38-.03,9.37-.1,2.98-.07,5.1-.1,6.35-.1,7.28,0,12.76,1.53,16.44,4.58,3.68,3.05,5.52,6.97,5.52,11.75,0,2.43-.5,4.8-1.51,7.12-1.01,2.32-2.67,4.44-4.99,6.34-2.33,1.91-5.43,3.45-9.31,4.63v.21c5.48,.69,9.76,1.99,12.85,3.9,3.09,1.91,5.25,4.14,6.5,6.71,1.25,2.57,1.87,5.27,1.87,8.11,0,3.95-.99,7.44-2.97,10.45s-4.84,5.39-8.58,7.12c-3.75,1.73-8.22,2.6-13.42,2.6-1.53,0-3.82-.05-6.87-.16-3.05-.1-6.73-.16-11.03-.16-2.43,0-4.82,.02-7.18,.05-2.36,.04-4.27,.12-5.72,.26v-2.08c2.36-.14,4.14-.42,5.36-.83,1.21-.42,2.03-1.25,2.45-2.5s.62-3.12,.62-5.62V11.25c0-2.56-.21-4.45-.62-5.67-.42-1.21-1.23-2.04-2.45-2.5-1.21-.45-3-.71-5.36-.78V.23Zm25.81,2.08c-3.19,0-5.27,.59-6.24,1.77-.97,1.18-1.46,3.57-1.46,7.18V62.84c0,2.43,.21,4.26,.62,5.51,.42,1.25,1.18,2.08,2.29,2.5,1.11,.42,2.74,.62,4.89,.62,6.8,0,11.74-1.58,14.83-4.73,3.09-3.15,4.63-7.64,4.63-13.47,0-5.34-1.44-9.46-4.32-12.38-2.88-2.91-7.61-4.37-14.2-4.37h-10.72v-1.77h8.95c4.09,0,7.25-.78,9.47-2.34,2.22-1.56,3.75-3.64,4.58-6.24,.83-2.6,1.25-5.39,1.25-8.37,0-5.13-1.13-9-3.38-11.6-2.26-2.6-5.98-3.9-11.19-3.9Z"/><g><path class="cls-1" d="M25.94,92.52v-.33c.37-.02,.65-.07,.84-.13,.19-.07,.32-.2,.38-.39,.07-.2,.1-.49,.1-.88v-8.12c0-.4-.03-.7-.1-.89s-.19-.32-.38-.39c-.19-.07-.47-.11-.84-.12v-.33c.23,.01,.53,.02,.9,.03,.37,.01,.77,.02,1.19,.02,.38,0,.76,0,1.14-.02,.38-.01,.69-.02,.94-.03v.33c-.37,.01-.65,.05-.84,.12-.19,.07-.32,.2-.38,.39s-.1,.49-.1,.89v8.12c0,.39,.03,.69,.1,.88,.07,.2,.19,.33,.38,.39,.19,.07,.47,.11,.84,.13v.33c-.25-.02-.56-.04-.94-.04s-.76,0-1.14,0c-.43,0-.82,0-1.19,0-.37,0-.67,.02-.9,.04Zm2.28-5.66v-.33h6.46v.33h-6.46Zm4.57,5.66v-.33c.37-.02,.65-.07,.84-.13,.19-.07,.32-.2,.38-.39,.07-.2,.1-.49,.1-.88v-8.12c0-.4-.03-.7-.1-.89s-.19-.32-.38-.39c-.19-.07-.47-.11-.84-.12v-.33c.25,.01,.57,.02,.95,.03,.38,.01,.76,.02,1.13,.02,.43,0,.82,0,1.2-.02,.37-.01,.67-.02,.9-.03v.33c-.37,.01-.65,.05-.84,.12-.19,.07-.32,.2-.38,.39s-.1,.49-.1,.89v8.12c0,.39,.03,.69,.1,.88,.07,.2,.19,.33,.38,.39,.19,.07,.47,.11,.84,.13v.33c-.23-.02-.53-.04-.9-.04-.37,0-.77,0-1.2,0-.37,0-.75,0-1.13,0s-.7,.02-.95,.04Z"/><path class="cls-1" d="M39.65,91.14l.26,.34-1.52,2.23-.34-.23,1.6-2.34Zm2.18-7.28c.7,0,1.33,.15,1.88,.46,.56,.31,1,.79,1.33,1.44,.33,.65,.5,1.51,.5,2.55s-.17,1.9-.5,2.54c-.33,.65-.78,1.13-1.33,1.43-.56,.31-1.18,.46-1.88,.46s-1.31-.15-1.87-.46c-.56-.31-1.01-.78-1.34-1.43s-.5-1.5-.5-2.54,.17-1.9,.5-2.55,.78-1.13,1.34-1.44c.56-.31,1.19-.46,1.87-.46Zm0,.33c-.62,0-1.13,.32-1.53,.97-.4,.64-.6,1.7-.6,3.16s.2,2.51,.6,3.15c.4,.64,.91,.96,1.53,.96s1.13-.32,1.53-.96c.4-.64,.6-1.69,.6-3.15s-.2-2.51-.6-3.16c-.4-.64-.91-.97-1.53-.97Zm1.93,.7l.25,.33-3.93,6.27-.26-.34,3.94-6.25Zm1.52-1.98l.31,.21-1.42,2.09-.25-.33,1.36-1.98Z"/><path class="cls-1" d="M45.89,95.6v-.25c.68-.03,1.18-.32,1.52-.88,.34-.55,.51-1.31,.51-2.27v-6.33c0-.49-.09-.85-.26-1.09-.17-.23-.5-.35-.98-.35v-.34c.35,.03,.69,.05,1.01,.05s.62-.02,.91-.06c.29-.04,.55-.1,.79-.17v6.73c0,.55-.04,1.06-.11,1.55-.08,.49-.2,.94-.38,1.34-.17,.4-.4,.76-.69,1.06-.27,.29-.61,.53-1.01,.72-.4,.19-.84,.28-1.32,.28Zm2.62-15.6c.28,0,.53,.1,.74,.31,.21,.21,.31,.45,.31,.74s-.1,.53-.31,.74c-.21,.21-.45,.31-.74,.31s-.53-.1-.74-.31c-.21-.21-.31-.45-.31-.74s.1-.53,.31-.74c.21-.21,.45-.31,.74-.31Z"/><path class="cls-1" d="M54.09,83.86c.44,0,.81,.07,1.11,.21,.31,.14,.53,.27,.67,.39,.36,.29,.58,.1,.65-.59h.38c-.02,.31-.04,.67-.05,1.09-.01,.42-.02,.98-.02,1.69h-.38c-.07-.4-.18-.8-.34-1.18s-.39-.7-.7-.94c-.31-.25-.7-.37-1.19-.37-.38,0-.7,.11-.96,.32-.26,.21-.38,.53-.38,.94,0,.33,.1,.61,.29,.84,.2,.23,.45,.45,.77,.65,.32,.2,.66,.42,1.03,.66,.41,.26,.79,.53,1.13,.8,.34,.27,.61,.57,.81,.9,.2,.33,.3,.71,.3,1.16,0,.5-.13,.92-.39,1.26-.26,.34-.6,.59-1.02,.77s-.88,.26-1.38,.26c-.24,0-.47-.02-.68-.06-.21-.04-.42-.1-.61-.17-.11-.05-.22-.12-.34-.2-.11-.08-.23-.16-.34-.25-.11-.09-.21-.08-.29,0-.09,.09-.15,.28-.2,.55h-.38c.02-.35,.04-.77,.05-1.28,.01-.5,.02-1.17,.02-2h.38c.08,.61,.19,1.15,.33,1.6s.37,.82,.67,1.07c.31,.26,.73,.38,1.28,.38,.22,0,.44-.05,.66-.15s.41-.26,.56-.49c.15-.23,.23-.53,.23-.92,0-.48-.17-.87-.52-1.18-.35-.31-.79-.63-1.33-.97-.39-.25-.76-.5-1.1-.75-.34-.25-.62-.53-.83-.85-.21-.32-.32-.7-.32-1.15,0-.49,.11-.89,.34-1.2s.52-.54,.89-.69c.37-.15,.77-.22,1.19-.22Z"/><path class="cls-1" d="M61.04,79.69v11.31c0,.46,.08,.77,.25,.93s.44,.25,.83,.25v.34c-.17-.01-.43-.02-.78-.04-.34-.02-.69-.02-1.04-.02-.37,0-.75,0-1.13,.02-.38,.02-.67,.03-.85,.04v-.34c.45,0,.77-.08,.96-.25,.19-.16,.29-.47,.29-.93v-9.34c0-.49-.09-.85-.26-1.09-.17-.23-.5-.35-.98-.35v-.34c.35,.03,.69,.05,1.01,.05s.62-.02,.91-.06c.29-.04,.55-.1,.79-.17Zm5.2,4.4v.33c-.27,.02-.53,.1-.77,.22s-.47,.31-.7,.55l-2.31,2.42,.23-.46,3.04,4.17c.19,.25,.36,.45,.53,.59s.37,.23,.61,.26v.34c-.12-.01-.31-.02-.56-.04-.26-.02-.51-.02-.76-.02-.34,0-.68,0-1.03,.02-.35,.02-.61,.03-.79,.04v-.34c.22,0,.37-.05,.46-.16,.09-.11,.07-.24-.05-.39l-1.88-2.75c-.21-.29-.4-.49-.56-.57-.17-.09-.41-.14-.73-.15v-.33c.35-.04,.63-.12,.85-.22,.22-.1,.43-.26,.62-.47l1.21-1.26c.35-.36,.52-.65,.52-.86s-.11-.37-.34-.46c-.22-.09-.52-.14-.88-.14v-.33c.28,.01,.6,.02,.96,.04,.35,.02,.65,.02,.89,.02,.19,0,.37,0,.54,0s.34-.01,.49-.02c.15-.01,.28-.02,.39-.03Z"/><path class="cls-1" d="M71.03,83.86c.7,0,1.33,.15,1.88,.46,.56,.31,1,.79,1.33,1.44,.33,.65,.5,1.51,.5,2.55s-.17,1.9-.5,2.54c-.33,.65-.78,1.13-1.33,1.43-.56,.31-1.18,.46-1.88,.46s-1.31-.15-1.87-.46c-.56-.31-1.01-.78-1.34-1.43s-.5-1.5-.5-2.54,.17-1.9,.5-2.55,.78-1.13,1.34-1.44c.56-.31,1.19-.46,1.87-.46Zm0,.33c-.62,0-1.13,.32-1.53,.97-.4,.64-.6,1.7-.6,3.16s.2,2.51,.6,3.15c.4,.64,.91,.96,1.53,.96s1.13-.32,1.53-.96c.4-.64,.6-1.69,.6-3.15s-.2-2.51-.6-3.16c-.4-.64-.91-.97-1.53-.97Z"/><path class="cls-1" d="M78.42,79.69v11.31c0,.46,.1,.77,.29,.93,.19,.16,.51,.25,.96,.25v.34c-.19-.01-.47-.02-.84-.04-.38-.02-.76-.02-1.14-.02s-.75,0-1.13,.02c-.38,.02-.67,.03-.85,.04v-.34c.45,0,.77-.08,.96-.25,.19-.16,.29-.47,.29-.93v-9.34c0-.49-.09-.85-.26-1.09-.17-.23-.5-.35-.98-.35v-.34c.35,.03,.69,.05,1.01,.05s.62-.02,.91-.06c.29-.04,.55-.1,.79-.17Z"/><path class="cls-1" d="M84.31,83.86c.96,0,1.71,.29,2.25,.88,.54,.58,.81,1.49,.81,2.72h-5.78l-.02-.31h4.22c.02-.53-.02-1.03-.13-1.48-.11-.45-.28-.82-.52-1.09s-.54-.41-.91-.41c-.5,0-.95,.25-1.33,.75-.39,.5-.62,1.3-.7,2.39l.05,.07c-.02,.16-.04,.34-.05,.54-.01,.2-.02,.39-.02,.59,0,.74,.12,1.38,.36,1.91,.24,.53,.55,.94,.94,1.22,.39,.28,.79,.42,1.2,.42,.33,0,.64-.05,.93-.16,.29-.1,.57-.28,.82-.52,.25-.24,.47-.56,.65-.97l.33,.13c-.12,.36-.32,.71-.59,1.05s-.62,.61-1.03,.83c-.42,.21-.89,.32-1.44,.32-.79,0-1.46-.18-2.02-.54-.56-.36-.99-.86-1.29-1.5-.3-.64-.45-1.37-.45-2.2,0-.96,.15-1.79,.46-2.48,.31-.69,.74-1.23,1.29-1.6s1.21-.56,1.95-.56Z"/></g></g><path class="cls-1" d="M45.69,.45c-5.58-.27-10.15-.37-13.32-.42C27.7-.03,24.99,.02,14.89,.03c-3.89,0-7.07,0-9.16,0V2.53c11.16-.72,22.98-.92,35.38-.42,2.67,.11,5.31,.25,7.91,.42-1.11-.69-2.22-1.39-3.33-2.08Z"/></g></g></svg>