<?xml version="1.0" encoding="UTF-8"?><svg id="Layer_2" xmlns="http://www.w3.org/2000/svg" width="29.02" height="8.75" viewBox="0 0 29.02 8.75"><defs><style>.cls-1{fill:#003771;}</style></defs><g id="Layer_1-2"><g><path class="cls-1" d="M28.52,4.41c0,.16-.08,.3-.19,.3H.69c-.1,0-.19-.13-.19-.3s.08-.3,.19-.3H28.33c.1,0,.19,.13,.19,.3Z"/><path class="cls-1" d="M28.33,5.21H.69c-.39,0-.69-.35-.69-.8s.3-.8,.69-.8H28.33c.38,0,.69,.35,.69,.8s-.3,.8-.69,.8Z"/></g><g><path class="cls-1" d="M28.52,4.47c0,.1-.03,.19-.08,.25l-3.36,3.49c-.09,.09-.2,.05-.26-.08-.06-.14-.03-.32,.05-.41l3.36-3.49c.09-.09,.2-.05,.26,.08,.02,.05,.03,.11,.03,.16Z"/><path class="cls-1" d="M24.97,8.75s-.08,0-.11-.01c-.22-.04-.41-.2-.5-.43-.13-.32-.07-.71,.16-.95l3.36-3.49c.15-.16,.36-.23,.58-.19,.22,.04,.41,.2,.5,.43,.04,.11,.07,.23,.07,.35,0,.23-.08,.45-.23,.6l-3.36,3.49c-.12,.13-.29,.2-.46,.2Zm.26-.7h0s0,0,0,0Zm2.85-3.69s0,0,0,0h0Z"/></g><g><path class="cls-1" d="M28.49,4.61c0,.06-.02,.11-.04,.16-.06,.13-.18,.16-.26,.07l-3.25-3.81c-.08-.1-.1-.28-.03-.41,.06-.13,.18-.16,.26-.07l3.25,3.81c.05,.06,.08,.15,.07,.25Z"/><path class="cls-1" d="M28.29,5.4c-.18,0-.36-.08-.49-.23l-3.25-3.81c-.21-.25-.25-.64-.1-.95,.11-.22,.3-.37,.52-.4,.22-.03,.42,.06,.57,.23l3.25,3.81c.13,.15,.2,.37,.19,.59,0,.12-.03,.25-.09,.36-.11,.23-.3,.38-.53,.41-.03,0-.05,0-.08,0Z"/></g></g></svg>