<?xml version="1.0" encoding="UTF-8"?><svg id="Layer_2" xmlns="http://www.w3.org/2000/svg" width="13" height="75.14" viewBox="0 0 13 75.14"><defs><style>.cls-1{fill:#003771;}</style></defs><g id="Layer_1-2"><path class="cls-1" d="M6.5,75c-.28,0-.5-.22-.5-.5V.5c0-.28,.22-.5,.5-.5s.5,.22,.5,.5V74.5c0,.28-.22,.5-.5,.5Z"/><path class="cls-1" d="M6.4,75c-.16,0-.32-.08-.42-.23L.08,65.77c-.15-.23-.09-.54,.14-.69,.23-.15,.54-.09,.69,.14l5.9,9c.15,.23,.09,.54-.14,.69-.08,.06-.18,.08-.27,.08Z"/><path class="cls-1" d="M6.3,75.14c-.1,0-.19-.03-.28-.09-.23-.15-.29-.47-.13-.69l6.2-9.14c.16-.23,.47-.29,.69-.13,.23,.15,.29,.47,.13,.69l-6.2,9.14c-.1,.14-.25,.22-.41,.22Z"/></g></svg>